<svg width="272" height="80" viewBox="0 0 272 80" fill="none" xmlns="http://www.w3.org/2000/svg">
<path d="M109.568 29.91V25.654H93.228V29.91H98.928V51H103.868V29.91H109.568ZM110.419 34.546V44.616C110.419 46.098 110.609 48.074 112.433 49.67C113.953 51 116.385 51.532 118.399 51.532C120.413 51.532 122.845 51 124.365 49.67C126.189 48.074 126.379 46.098 126.379 44.616V34.546H121.743V43.856C121.743 44.73 121.667 45.908 120.755 46.744C120.185 47.238 119.273 47.58 118.399 47.58C117.525 47.58 116.613 47.238 116.043 46.744C115.131 45.908 115.055 44.73 115.055 43.856V34.546H110.419ZM130.792 51H135.428V43.096C135.428 41.956 135.466 40.55 136.34 39.448C137.252 38.308 138.544 38.118 139.418 38.118C140.368 38.118 140.976 38.308 141.584 38.726L142.192 34.394C141.66 34.204 141.014 34.014 140.216 34.014C139.114 34.014 138.202 34.28 137.48 34.736C137.138 34.926 136.15 35.61 135.428 37.016V34.546H130.792V51ZM144.485 34.546V51H149.121V34.546H144.485ZM144.029 27.592C144.029 29.112 145.283 30.366 146.803 30.366C148.323 30.366 149.577 29.112 149.577 27.592C149.577 26.072 148.323 24.818 146.803 24.818C145.283 24.818 144.029 26.072 144.029 27.592ZM153.54 51H158.176V42.602C158.176 41.652 158.214 40.474 158.898 39.41C159.582 38.384 160.532 37.966 161.748 37.966C162.204 37.966 163.192 38.042 163.914 38.802C164.75 39.676 164.788 41.12 164.788 42.032V51H169.424V40.664C169.424 39.068 169.272 37.434 168.132 36.028C166.84 34.432 164.712 34.014 163.268 34.014C160.608 34.014 159.05 35.458 158.176 36.674V34.546H153.54V51ZM186.379 36.674C185.733 35.686 184.289 34.014 181.211 34.014C179.007 34.014 176.993 34.812 175.549 36.218C173.953 37.776 173.003 40.17 173.003 42.754C173.003 45.946 174.409 48.074 175.625 49.29C177.221 50.848 179.121 51.532 181.325 51.532C182.579 51.532 184.783 51.228 186.379 48.796V51.114C186.379 52.444 186.265 53.736 185.201 54.762C184.593 55.332 183.719 55.788 182.389 55.788C181.743 55.788 180.489 55.75 179.577 54.914C179.045 54.458 178.627 53.698 178.437 52.938H173.421C173.801 54.8 174.789 56.738 176.081 57.84C177.145 58.79 179.045 59.74 182.237 59.74C185.619 59.74 187.595 58.562 188.735 57.422C190.787 55.37 191.015 52.748 191.015 50.24V34.546H186.379V36.674ZM182.351 38.118C183.605 38.118 184.669 38.498 185.581 39.448C186.227 40.132 186.911 41.196 186.911 42.754C186.911 44.084 186.379 45.414 185.429 46.288C184.631 47.01 183.491 47.428 182.351 47.428C181.249 47.428 179.995 47.048 179.007 45.984C178.323 45.262 177.791 44.198 177.791 42.754C177.791 41.044 178.513 39.942 179.273 39.258C179.843 38.726 180.869 38.118 182.351 38.118ZM220.038 28.048C217.454 25.388 214.452 25.084 212.856 25.084C207.232 25.084 204.724 28.808 204.724 32.532C204.724 35.116 205.902 36.522 206.738 37.244C208.03 38.384 209.626 38.992 210.956 39.448C212.4 39.942 213.92 40.436 214.87 41.31C215.554 41.956 215.858 42.678 215.858 43.59C215.858 45.718 214.186 47.086 211.944 47.086C210.158 47.086 207.84 46.174 206.624 43.704L203.394 46.782C204.724 48.72 207.46 51.57 212.134 51.57C217.378 51.57 220.95 48.188 220.95 43.248C220.95 40.664 219.924 38.954 218.784 37.928C217.492 36.75 215.63 36.066 213.654 35.382C212.058 34.812 211.222 34.508 210.614 33.938C210.006 33.406 209.816 32.836 209.816 32.228C209.816 30.936 210.652 29.264 213.312 29.264C214.224 29.264 215.972 29.454 217.454 31.43L220.038 28.048ZM239.348 25.654H225.288V51H239.348V46.744H230.228V39.828H238.968V35.572H230.228V29.91H239.348V25.654ZM256.452 25.084C248.472 25.084 242.924 30.632 242.924 38.346C242.924 46.06 248.472 51.57 256.452 51.57C264.432 51.57 269.98 46.06 269.98 38.346C269.98 30.632 264.432 25.084 256.452 25.084ZM256.452 47.086C251.512 47.086 248.016 43.476 248.016 38.346C248.016 33.216 251.512 29.568 256.452 29.568C261.392 29.568 264.888 33.216 264.888 38.346C264.888 43.476 261.392 47.086 256.452 47.086Z" fill="#131821"/>
<path d="M41.6406 80V13.0938L65.602 27.7413C73.577 32.6164 75.1144 43.561 68.791 50.4445L41.6406 80Z" fill="url(#paint0_linear_2_13)"/>
<path d="M72.8632 18.5531V39.4411C69.1165 33.6064 58.9882 33.8523 34.6739 33.8523H18.5527C8.30686 33.8523 2.93743e-06 25.5455 2.13357e-06 15.2996L0 9.137e-06H34.6739L54.3166 5.98154e-06C64.5624 2.41237e-06 72.8632 8.30728 72.8632 18.5531Z" fill="url(#paint1_linear_2_13)"/>
<defs>
<linearGradient id="paint0_linear_2_13" x1="37.3264" y1="26.986" x2="35.201" y2="52.6234" gradientUnits="userSpaceOnUse">
<stop stop-color="#422EC0"/>
<stop offset="1" stop-color="#5A94EA"/>
</linearGradient>
<linearGradient id="paint1_linear_2_13" x1="65.8527" y1="40.3484" x2="0.118877" y2="-0.192749" gradientUnits="userSpaceOnUse">
<stop stop-color="#422EC0"/>
<stop offset="1" stop-color="#84CEEB"/>
</linearGradient>
</defs>
</svg>
